#N canvas 160 158 1440 852 10;
#X obj 117 43 receive fromGUI;
#X obj 117 91 route /posx /posy;
#X obj 117 66 list trim;
#X obj 337 579 send toGUI;
#X msg 117 173 list /gpsPanel getpix \$1 \$2;
#X obj 117 149 pack f f;
#X floatatom 162 122 5 0 0 0 - - -, f 5;
#X floatatom 117 122 5 0 0 0 - - -, f 5;
#X obj 307 189 route /gpsPanel;
#X obj 139 217 loadbang;
#X msg 139 241 1;
#X obj 139 264 metro 1000;
#X msg 139 293 list /gpsPanel updategpspos;
#X msg 451 177 list /enableLocation \$1;
#X obj 451 115 loadbang;
#X msg 451 157 1;
#X obj 451 136 delay 3000;
#X obj 451 205 send toSystem;
#X obj 305 114 route /enableLog;
#X msg 305 138 list /enableLogging \$1;
#X obj 307 219 unpack f f f f f;
#X msg 353 315 list /r \$1;
#X msg 376 343 list /g \$1;
#X msg 400 375 list /b \$1;
#X obj 353 278 / 255;
#X obj 373 252 / 255;
#X obj 422 263 / 255;
#X msg 803 222 0;
#X obj 830 198 text define loca.map;
#X obj 803 249 text get loca.map;
#X obj 591 355 loadbang;
#X obj 803 147 t b b;
#X obj 591 496 print;
#X obj 803 87 loadbang;
#X msg 830 175 read ./sumberan.csv;
#X msg 591 434 list /gpsPanel setgpsbound \$1 \$2 \$3 \$4 \$5 \$6 \$7
\$8;
#X msg 591 395 110 370678 -7 747665 110 390831 -7 727646;
#X connect 0 0 2 0;
#X connect 1 0 7 0;
#X connect 1 1 6 0;
#X connect 2 0 1 0;
#X connect 2 0 18 0;
#X connect 2 0 8 0;
#X connect 4 0 3 0;
#X connect 5 0 4 0;
#X connect 6 0 5 1;
#X connect 7 0 5 0;
#X connect 8 0 20 0;
#X connect 9 0 10 0;
#X connect 10 0 11 0;
#X connect 11 0 12 0;
#X connect 12 0 3 0;
#X connect 13 0 17 0;
#X connect 14 0 16 0;
#X connect 15 0 13 0;
#X connect 16 0 15 0;
#X connect 18 0 19 0;
#X connect 19 0 17 0;
#X connect 20 2 24 0;
#X connect 20 3 25 0;
#X connect 20 4 26 0;
#X connect 21 0 3 0;
#X connect 22 0 3 0;
#X connect 23 0 3 0;
#X connect 24 0 21 0;
#X connect 25 0 22 0;
#X connect 26 0 23 0;
#X connect 27 0 29 0;
#X connect 30 0 36 0;
#X connect 31 0 27 0;
#X connect 31 1 34 0;
#X connect 33 0 31 0;
#X connect 34 0 28 0;
#X connect 35 0 3 0;
#X connect 35 0 32 0;
#X connect 36 0 35 0;
