#N canvas 150 282 450 300 10;
#X obj 117 43 receive fromGUI;
#X obj 117 91 route /posx /posy;
#X obj 117 66 list trim;
#X obj 117 197 send toGUI;
#X msg 117 173 list /gpsPanel getpix \$1 \$2;
#X obj 117 149 pack f f;
#X floatatom 162 122 5 0 0 0 - - -, f 5;
#X floatatom 117 122 5 0 0 0 - - -, f 5;
#X obj 297 84 route /gpsPanel;
#X obj 331 135 print rgb;
#X connect 0 0 2 0;
#X connect 1 0 7 0;
#X connect 1 1 6 0;
#X connect 2 0 1 0;
#X connect 2 0 8 0;
#X connect 4 0 3 0;
#X connect 5 0 4 0;
#X connect 6 0 5 1;
#X connect 7 0 5 0;
#X connect 8 0 9 0;
